<svg width="907" height="510" viewBox="0 0 907 510" fill="none" xmlns="http://www.w3.org/2000/svg">
<path d="M747.932 96.7658C735.372 100.102 722.487 92.624 719.151 80.0647C715.816 67.5067 723.293 54.6212 735.852 51.2855C748.412 47.9498 761.297 55.4274 764.633 67.9867C767.969 80.5447 760.491 93.4302 747.932 96.7658ZM795.185 74.7262L815.918 69.2194L808.546 41.4683L787.816 46.9752C785.627 43.2558 783.021 39.8612 780.071 36.8384L790.837 18.2842L766.003 3.8719L755.236 22.4274C751.147 21.3659 746.906 20.787 742.592 20.7335L737.085 9.15527e-05L709.334 7.37068L714.842 28.1027C711.123 30.2913 707.728 32.8971 704.707 35.8477L686.15 25.0813L671.738 49.9151L690.295 60.6829C689.232 64.7713 688.654 69.0121 688.601 73.3251L667.867 78.8334L675.238 106.583L695.97 101.076C698.157 104.796 700.763 108.19 703.713 111.213L692.947 129.768L717.782 144.179L728.549 125.624C732.638 126.685 736.878 127.264 741.192 127.319L746.699 148.051L774.45 140.681L768.942 119.949C772.663 117.761 776.056 115.154 779.079 112.204L797.634 122.971L812.047 98.1362L793.491 87.3685C794.553 83.2801 795.13 79.0406 795.185 74.7262Z" fill="#939AD5"/>
<path d="M56.6309 235.997C51.608 237.33 46.455 234.341 45.1206 229.318C43.7863 224.295 46.7772 219.141 51.8001 217.808C56.8227 216.474 61.9762 219.465 63.3105 224.486C64.6433 229.509 61.6535 234.663 56.6309 235.997ZM75.5285 227.181L83.8201 224.979L80.8736 213.881L72.5814 216.083C71.7067 214.597 70.6637 213.238 69.4834 212.03L73.7904 204.608L63.8573 198.845L59.5514 206.266C57.9167 205.842 56.221 205.61 54.495 205.588L52.2921 197.297L41.1944 200.245L43.3973 208.536C41.9099 209.411 40.5521 210.454 39.3431 211.634L31.922 207.326L26.1578 217.26L33.579 221.566C33.1545 223.201 32.9236 224.897 32.9011 226.623L24.6094 228.825L27.5575 239.923L35.8492 237.721C36.724 239.209 37.7659 240.566 38.9462 241.774L34.6402 249.196L44.5723 254.959L48.8782 247.538C50.5139 247.963 52.2102 248.194 53.9346 248.216L56.1375 256.509L67.2362 253.559L65.0339 245.268C66.5208 244.393 67.8786 243.351 69.0876 242.171L76.5087 246.478L82.2716 236.545L74.8506 232.239C75.2762 230.604 75.5076 228.907 75.5285 227.181Z" fill="#CDCAEA"/>
<path d="M623.739 55.3903C619.915 56.4064 615.991 54.1282 614.975 50.3045C613.96 46.4809 616.237 42.5569 620.061 41.5422C623.884 40.5261 627.808 42.8029 628.824 46.6266C629.839 50.4516 627.562 54.3742 623.739 55.3903ZM638.127 48.6788L644.439 47.0022L642.195 38.5527L635.882 40.2293C635.216 39.0969 634.422 38.0634 633.524 37.1422L636.803 31.4923L629.24 27.1057L625.962 32.7544C624.717 32.4321 623.426 32.2557 622.112 32.2383L620.435 25.9266L611.986 28.1699L613.662 34.4831C612.53 35.1489 611.498 35.943 610.576 36.8414L604.926 33.5632L600.539 41.125L606.189 44.4032C605.865 45.6479 605.688 46.9394 605.671 48.2536L599.359 49.9288L601.603 58.3797L607.916 56.7032C608.582 57.8342 609.376 58.8677 610.274 59.7889L606.996 65.4388L614.558 69.8267L617.836 64.1767C619.082 64.5003 620.372 64.6767 621.686 64.6928L623.363 71.0059L631.813 68.7611L630.136 62.4494C631.268 61.7836 632.3 60.9894 633.223 60.091L638.872 63.3692L643.261 55.8074L637.61 52.5292C637.933 51.2845 638.11 49.993 638.127 48.6788Z" fill="#CDCAEA"/>
<path d="M236.161 102.576C234.257 97.9089 229.681 94.616 224.329 94.616C219.386 94.616 215.108 97.4263 212.982 101.532C211.053 97.4958 206.946 94.7029 202.175 94.7029C200.233 94.7029 198.401 95.1762 196.779 95.9958C193.777 89.0102 186.839 84.1156 178.753 84.1156C176.001 84.1156 173.382 84.6878 171.003 85.7132C169.927 70.8276 157.539 59.0785 142.379 59.0785C126.644 59.0785 113.882 71.7328 113.669 87.4179C109.428 82.9752 103.462 80.193 96.8344 80.193C87.0867 80.193 78.7488 86.1852 75.2758 94.6815C72.6317 92.4167 69.2047 91.0383 65.4498 91.0383C58.3368 91.0383 52.3884 95.9597 50.7783 102.576C50.4989 103.726 50.3359 104.919 50.3359 106.154C50.3359 108.887 51.0707 111.442 52.3388 113.653H75.9026H78.5618H117.764H129.896H154.863H161.854H192.434H195.652H211.915H213.195H235.461C236.504 111.802 237.107 109.67 237.107 107.395C237.107 105.689 236.766 104.064 236.161 102.576Z" fill="#939AD5"/>
<path d="M185.824 139.159C183.922 134.492 179.344 131.198 173.994 131.198C169.051 131.198 164.773 134.009 162.647 138.114C160.718 134.079 156.61 131.285 151.84 131.285C149.896 131.285 148.066 131.758 146.443 132.579C143.442 125.593 136.504 120.699 128.418 120.699C125.664 120.699 123.046 121.271 120.668 122.295C119.59 107.411 107.205 95.6615 92.0452 95.6615C76.3097 95.6615 63.5459 108.316 63.3344 124.001C59.0937 119.557 53.1256 116.776 46.4982 116.776C36.7521 116.776 28.4143 122.768 24.9399 131.264C22.2974 128.998 18.8688 127.621 15.1154 127.621C8.00245 127.621 2.05248 132.541 0.443999 139.159C0.164576 140.308 0 141.502 0 142.736C0 145.468 0.735321 148.025 2.00288 150.236H25.5666H28.2264H67.4299H79.5606H104.53H111.519H142.099H145.317H161.58H162.858H185.128C186.17 148.384 186.771 146.253 186.771 143.976C186.771 142.272 186.43 140.647 185.824 139.159Z" fill="white"/>
<path d="M898.204 327.942C896.822 324.551 893.497 322.161 889.61 322.161C886.022 322.161 882.914 324.201 881.371 327.182C879.97 324.252 876.987 322.224 873.523 322.224C872.111 322.224 870.782 322.567 869.603 323.164C867.424 318.09 862.385 314.535 856.512 314.535C854.513 314.535 852.61 314.951 850.883 315.694C850.102 304.885 841.106 296.351 830.096 296.351C818.669 296.351 809.399 305.541 809.246 316.933C806.165 313.706 801.832 311.686 797.017 311.686C789.939 311.686 783.884 316.038 781.362 322.208C779.442 320.563 776.954 319.563 774.226 319.563C769.06 319.563 764.739 323.136 763.571 327.942C763.368 328.776 763.25 329.644 763.25 330.541C763.25 332.524 763.783 334.381 764.705 335.986H781.816H783.749H812.22H821.029H839.163H844.24H866.449H868.785H880.597H881.525H897.696C898.456 334.643 898.892 333.093 898.892 331.439C898.892 330.203 898.644 329.022 898.204 327.942Z" fill="white"/>
<path d="M905.837 111.338C903.501 105.605 897.881 101.561 891.308 101.561C885.238 101.561 879.984 105.013 877.373 110.055C875.004 105.099 869.961 101.668 864.101 101.668C861.715 101.668 859.467 102.248 857.474 103.258C853.788 94.6785 845.266 88.6663 835.338 88.6663C831.956 88.6663 828.742 89.3695 825.82 90.6276C824.498 72.3475 809.285 57.9191 790.668 57.9191C771.344 57.9191 755.671 73.4598 755.41 92.7226C750.202 87.2651 742.873 83.8493 734.734 83.8493C722.764 83.8493 712.526 91.2078 708.26 101.643C705.014 98.8592 700.805 97.1679 696.194 97.1679C687.458 97.1679 680.152 103.211 678.177 111.338C677.833 112.749 677.633 114.214 677.633 115.731C677.633 119.086 678.535 122.225 680.091 124.94H709.03H712.295H760.439H775.338H806H814.585H852.141H856.092H876.063H877.634H904.98C906.261 122.668 907 120.048 907 117.254C907 115.159 906.583 113.165 905.837 111.338Z" fill="white"/>
<path d="M867.438 376.452C863.724 377.44 859.912 375.227 858.927 371.513C857.94 367.799 860.152 363.988 863.866 363.001C867.581 362.014 871.391 364.226 872.379 367.94C873.365 371.654 871.153 375.465 867.438 376.452ZM881.414 369.933L887.547 368.306L885.366 360.097L879.235 361.727C878.588 360.625 877.817 359.621 876.945 358.728L880.128 353.24L872.783 348.978L869.598 354.466C868.39 354.152 867.136 353.981 865.86 353.965L864.231 347.832L856.023 350.012L857.651 356.144C856.552 356.791 855.548 357.562 854.654 358.435L849.164 355.251L844.904 362.596L850.39 365.781C850.078 366.989 849.906 368.244 849.889 369.52L843.758 371.148L845.937 379.356L852.07 377.727C852.718 378.828 853.488 379.832 854.361 380.726L851.175 386.213L858.52 390.477L861.705 384.987C862.915 385.301 864.169 385.472 865.445 385.488L867.074 391.621L875.28 389.441L873.653 383.309C874.752 382.662 875.756 381.892 876.651 381.018L882.139 384.202L886.401 376.858L880.913 373.673C881.227 372.464 881.398 371.21 881.414 369.933Z" fill="#CDCAEA"/>
<path d="M855.625 432.518C854.728 414.658 846.285 400.803 831.184 394.412C822.248 390.63 812.59 388.748 804.297 383.46C791.747 375.458 785.355 361.799 784.597 345.944C784.006 333.569 786.343 321.291 787.777 309C791.536 276.806 776.899 249.082 749.53 236.739C729.387 227.655 706.691 228.225 685.277 232.426C673.452 234.746 661.764 238.127 649.799 239.255C635.775 240.577 619.927 239.366 610.446 226.725C601.702 215.071 601.913 197.215 603.341 183.073C611.857 98.711 516.211 65.7084 456.727 88.1224C427.658 99.076 413.296 129.667 402.922 159.471C393.031 187.887 385.207 231.405 359.663 247.721C338.884 260.993 318.667 246.893 298.454 232.794C275.407 216.718 252.368 200.644 228.506 225.132C217.853 236.064 214.753 251.49 213.728 266.935C212.563 284.547 212.041 302.522 199.12 315.05C191.476 322.459 181.422 326.259 171.35 327.674C160.618 329.181 149.84 328.355 139.061 327.527C127.107 326.61 115.155 325.693 103.27 327.961C79.805 332.438 63.8013 351.726 57.6701 376.715C53.2868 394.581 53.7768 413.459 55.3147 431.895L855.625 432.518Z" fill="#CDCAEA"/>
<path d="M857.209 437.923H52.9219V431.883H857.209V437.923Z" fill="#9497D3"/>
<path d="M540.341 432.06H367.033V423.95H540.341V432.06Z" fill="#5254AE"/>
<path d="M666.872 344.338H243.26V124.062C243.26 114.696 250.852 107.103 260.218 107.103H649.915C659.28 107.103 666.872 114.696 666.872 124.062V344.338Z" fill="#5254AE"/>
<path d="M649.985 384.941H260.147C250.819 384.941 243.26 377.382 243.26 368.054V344.338H666.872V368.054C666.872 377.382 659.311 384.941 649.985 384.941Z" fill="#9497D3"/>
<path d="M258.891 329.645H651.243V120.799H258.891V329.645Z" fill="#CDCAEA"/>
<path d="M494.645 369.504H416.297V359.691H494.645V369.504Z" fill="#5254AE"/>
<path d="M507.668 423.95H402.461L407.995 384.942H502.135L507.668 423.95Z" fill="#8A92D1"/>
<path d="M407.963 384.941H502.122L503.933 398.268H406.061L407.963 384.941Z" fill="#5E66B9"/>
<path d="M294.666 489.935C294.666 500.847 252.274 509.694 199.981 509.694C147.689 509.694 105.297 500.847 105.297 489.935C105.297 479.021 147.689 470.175 199.981 470.175C252.274 470.175 294.666 479.021 294.666 489.935Z" fill="#CDCAEA"/>
<path d="M233.75 386.339C233.288 385.384 232.546 384.641 231.643 384.222L208.176 373.326L195.383 373.274L182.588 373.345L159.53 384.19C158.516 384.668 157.685 385.514 157.17 386.589C155.495 390.074 146.648 419.407 141.561 436.465C139.771 442.463 143.818 448.635 149.535 448.631L240.482 448.566C246.12 448.562 250.147 442.538 248.493 436.581C243.741 419.466 235.376 389.695 233.75 386.339Z" fill="#F9A517"/>
<path d="M208.178 373.322L182.582 373.339L182.614 448.607L208.257 448.588L208.178 373.322Z" fill="white"/>
<path d="M234.622 477.664L157.228 477.719L157.207 448.626L234.602 448.569L234.622 477.664Z" fill="#1B2546"/>
<path d="M183.785 357.706L183.797 373.912V373.961C183.797 373.961 188.561 375.87 194.97 375.973C198.453 376.029 202.42 375.553 206.377 373.945L206.365 357.69L183.785 357.706Z" fill="#F79696"/>
<path d="M206.182 361.202C206.034 361.357 205.888 361.51 205.74 361.657L205.487 361.902C205.341 362.041 205.194 362.179 205.047 362.31L204.783 362.541C204.638 362.666 204.495 362.79 204.351 362.906L204.071 363.127C203.93 363.235 203.791 363.345 203.65 363.446L203.356 363.655C203.221 363.75 203.086 363.846 202.952 363.936L202.645 364.133C202.516 364.215 202.387 364.298 202.258 364.374L201.934 364.564L201.577 364.766L201.23 364.949L200.908 365.113C200.782 365.176 200.659 365.234 200.534 365.291L200.258 365.42C200.121 365.481 199.986 365.537 199.851 365.593L199.63 365.687C199.476 365.749 199.329 365.805 199.181 365.861L199.027 365.917C198.849 365.983 198.678 366.04 198.51 366.096L198.453 366.115C197.891 366.299 197.377 366.434 196.939 366.533C196.269 366.686 195.583 366.766 194.898 366.761C194.669 366.759 194.44 366.75 194.213 366.727C193.846 366.694 193.492 366.647 193.143 366.595L193.052 366.581C192.713 366.529 192.378 366.468 192.049 366.4L192.023 366.393C190.114 365.995 188.446 365.331 186.992 364.464L186.92 364.42C186.616 364.236 186.321 364.045 186.036 363.845L186.02 363.833L185.989 363.809C185.184 363.238 184.453 362.596 183.787 361.902L183.788 363.727C184.454 364.421 185.186 365.063 185.99 365.636L186.021 365.658L186.037 365.67C186.322 365.87 186.617 366.061 186.92 366.246L186.993 366.287C188.448 367.156 190.115 367.819 192.024 368.219L192.051 368.225C192.38 368.293 192.714 368.354 193.054 368.406L193.144 368.421C193.493 368.473 193.848 368.519 194.214 368.552C194.441 368.575 194.67 368.586 194.9 368.588C195.584 368.592 196.269 368.511 196.94 368.36C197.379 368.259 197.892 368.124 198.455 367.94L198.51 367.921C198.678 367.866 198.851 367.809 199.028 367.743L199.182 367.686C199.33 367.63 199.478 367.575 199.631 367.512L199.852 367.42C199.987 367.364 200.122 367.307 200.26 367.246L200.535 367.116C200.661 367.059 200.784 367.001 200.909 366.938L201.232 366.774L201.578 366.591L201.935 366.389L202.26 366.199C202.388 366.123 202.518 366.04 202.646 365.958L202.954 365.761C203.087 365.671 203.222 365.576 203.357 365.48L203.652 365.271C203.792 365.17 203.931 365.06 204.071 364.952L204.352 364.731C204.496 364.615 204.64 364.49 204.784 364.366L205.049 364.135C205.196 364.004 205.343 363.866 205.488 363.727L205.741 363.482C205.89 363.335 206.035 363.183 206.184 363.026L206.368 362.827L206.367 361.002L206.182 361.202Z" fill="#F4727F"/>
<path d="M180.781 346.374C179.869 348.626 177.305 349.711 175.053 348.801C172.802 347.888 171.715 345.324 172.628 343.073C173.54 340.822 176.104 339.735 178.356 340.647C180.607 341.559 181.693 344.124 180.781 346.374Z" fill="#F4727F"/>
<path d="M217.972 344.826C217.06 347.079 214.496 348.165 212.245 347.253C209.993 346.341 208.907 343.777 209.819 341.524C210.731 339.274 213.295 338.187 215.548 339.1C217.798 340.012 218.885 342.575 217.972 344.826Z" fill="#F4727F"/>
<path d="M212.374 335.097C214.626 359.713 201.611 364.894 196.899 365.959C196.006 366.16 195.088 366.239 194.176 366.152C173.126 364.155 177.734 333.181 177.734 333.181C177.734 333.181 179.832 320.246 195.781 320.987C195.781 320.987 211.076 320.926 212.374 335.097Z" fill="#F79696"/>
<path d="M174.015 331.96C173.72 334.219 174.217 337.655 177.292 342.455C177.292 342.455 184.799 329.807 178.896 328.388C176.563 327.827 174.327 329.581 174.015 331.96Z" fill="#283167"/>
<path d="M214.836 331.874C215.765 334.115 216.125 337.954 212.157 343.185C212.157 343.185 204.544 329.705 210.546 329.172C212.395 329.008 214.125 330.159 214.836 331.874Z" fill="#283167"/>
<path d="M194.116 345.681L192.945 350.031L195.78 350.03L195.778 349.361H193.818L194.762 345.855L194.116 345.681Z" fill="#F4727F"/>
<path d="M208.729 352.553C208.73 354.537 207.123 356.145 205.139 356.146C203.157 356.148 201.548 354.542 201.547 352.558C201.546 350.575 203.153 348.967 205.135 348.964C207.118 348.963 208.728 350.57 208.729 352.553Z" fill="#F4727F"/>
<path d="M188.548 352.567C188.549 354.551 186.944 356.16 184.961 356.161C182.977 356.162 181.369 354.555 181.367 352.573C181.365 350.59 182.972 348.98 184.956 348.979C186.938 348.978 188.547 350.585 188.548 352.567Z" fill="#F4727F"/>
<path d="M187.028 344.596C187.03 345.16 186.573 345.618 186.01 345.618C185.446 345.619 184.988 345.162 184.988 344.599C184.987 344.035 185.444 343.577 186.007 343.577C186.571 343.577 187.028 344.033 187.028 344.596Z" fill="#283167"/>
<path d="M204.028 344.549C204.028 345.114 203.574 345.571 203.01 345.571C202.447 345.571 201.99 345.115 201.988 344.551C201.988 343.988 202.446 343.531 203.008 343.529C203.573 343.529 204.028 343.987 204.028 344.549Z" fill="#283167"/>
<path d="M181.884 339.039L190.139 337.946C188.996 336.988 187.453 336.529 185.78 336.75C184.125 336.969 182.732 337.845 181.875 339.051" fill="#283167"/>
<path d="M207.371 338.854L199.117 337.774C200.258 336.814 201.799 336.353 203.472 336.572C205.129 336.789 206.524 337.664 207.381 338.868" fill="#283167"/>
<path d="M173.242 320.082C173.242 320.082 177.098 340.654 211.044 329.855C211.044 329.855 210.202 301.342 173.242 320.082Z" fill="#283167"/>
<path d="M197.692 356.166C197.121 357.392 195.938 358.232 194.573 358.225C193.217 358.217 192.048 357.375 191.488 356.155L197.692 356.166Z" fill="white"/>
<path d="M199.987 339.241C199.192 339.242 198.546 339.888 198.546 340.681L198.547 343.122C198.55 346.84 201.591 349.864 205.325 349.86C209.061 349.859 212.098 346.831 212.096 343.111L212.094 340.671C212.093 339.878 211.445 339.233 210.649 339.233L199.987 339.241ZM205.327 350.439C201.271 350.443 197.968 347.159 197.966 343.122L197.963 340.681C197.963 339.567 198.871 338.663 199.987 338.662L210.649 338.655C211.766 338.654 212.675 339.557 212.676 340.67L212.677 343.111C212.68 347.149 209.383 350.436 205.327 350.439Z" fill="#5254AE"/>
<path d="M179.286 339.255C178.49 339.257 177.842 339.901 177.843 340.694L177.845 343.135C177.847 346.855 180.889 349.878 184.624 349.875C188.36 349.872 191.396 346.845 191.393 343.127L191.391 340.685C191.391 339.893 190.744 339.247 189.948 339.249L179.286 339.255ZM184.624 350.455C180.568 350.458 177.266 347.174 177.263 343.135L177.262 340.694C177.26 339.582 178.168 338.677 179.286 338.677L189.947 338.67C191.063 338.668 191.974 339.571 191.974 340.683L191.976 343.126C191.979 347.163 188.681 350.451 184.624 350.455Z" fill="#5254AE"/>
<path d="M191.938 343.559L191.363 342.77C191.401 342.742 195.219 340.033 198.527 342.785L197.897 343.534C195.172 341.265 191.972 343.535 191.938 343.559Z" fill="#5254AE"/>
<path d="M123.316 483.759C131.397 480.033 149.318 482.266 149.318 482.266C149.318 482.266 144.099 491.559 153.024 494.813L136.172 498.032C133.208 498.6 130.131 498.503 127.256 497.582C122.039 495.911 120.387 492.67 119.947 490.122C119.491 487.487 120.89 484.88 123.316 483.759Z" fill="#181819"/>
<path d="M149.318 482.266L157.744 482.261L160.642 491.948L153.024 494.813C144.098 491.559 149.318 482.266 149.318 482.266Z" fill="#F79696"/>
<path d="M249.677 446.492C255.605 444.585 261.75 443.862 266.189 449.015C269.633 453.012 270.178 458.891 267.544 463.463C264.879 468.092 259.475 470.208 254.869 472.338C245.255 476.784 170.002 494.864 159.885 497.261L154.352 478.758C158.969 477.188 163.602 475.662 168.23 474.124C176.179 471.479 184.128 468.841 192.074 466.193C200.895 463.256 209.711 460.315 218.524 457.355C225.763 454.924 233.002 452.487 240.223 449.995C243.077 449.009 246.343 447.564 249.677 446.492Z" fill="#1F2A54"/>
<path d="M273.871 485.095C265.786 481.38 247.866 483.638 247.866 483.638C247.866 483.638 253.098 492.925 244.18 496.191L261.035 499.387C264.001 499.949 267.078 499.848 269.952 498.924C275.165 497.246 276.813 494.002 277.25 491.452C277.701 488.817 276.3 486.211 273.871 485.095Z" fill="#181819"/>
<path d="M247.865 483.638L239.44 483.645L236.555 493.338L244.179 496.191C253.098 492.926 247.865 483.638 247.865 483.638Z" fill="#F79696"/>
<path d="M147.458 447.501C141.526 445.604 135.382 444.889 130.95 450.048C127.512 454.05 126.975 459.931 129.614 464.498C132.287 469.123 137.693 471.232 142.302 473.355C151.922 477.787 227.201 495.76 237.323 498.144L242.83 479.631C238.209 478.069 233.574 476.549 228.944 475.017C220.992 472.386 213.04 469.756 205.089 467.121C196.265 464.195 187.443 461.266 178.627 458.32C171.383 455.899 164.141 453.475 156.919 450.992C154.062 450.011 150.794 448.569 147.458 447.501Z" fill="#283167"/>
<path d="M230.997 391.581L159.966 391.632C155.491 391.634 151.865 395.265 151.869 399.74L154.092 452.944L236.958 452.885L239.106 399.677C239.104 395.204 235.473 391.578 230.997 391.581Z" fill="#A3A9DC"/>
<path d="M163.241 396.899L234.272 396.85C236.034 396.848 237.66 397.415 238.99 398.369C238.359 394.518 235.026 391.578 230.997 391.581L159.966 391.632C155.491 391.634 151.865 395.265 151.869 399.74L154.092 452.944L157.147 452.941L155.143 405.009C155.141 400.533 158.766 396.903 163.241 396.899Z" fill="#B9C0E7"/>
<path d="M201.304 416.834C201.306 419.829 198.881 422.258 195.888 422.26C192.892 422.262 190.464 419.837 190.461 416.842C190.458 413.848 192.883 411.42 195.88 411.417C198.873 411.416 201.301 413.84 201.304 416.834Z" fill="white"/>
<path d="M392.139 344.338H253.094V276.482H258.889V329.645H392.139V344.338Z" fill="#4E50AB"/>
<path d="M253.094 364.601H392.139V344.338H253.094V364.601Z" fill="#7679C4"/>
<path d="M258.891 329.645H392.14V276.482H258.891V329.645Z" fill="#A19BD5"/>
<path d="M388.937 361.356H249.893V273.238H388.937V361.356Z" fill="#F9FDF9"/>
<path d="M318.467 287.166C305.44 287.166 294.839 297.768 294.839 310.796C294.839 323.822 305.44 334.424 318.467 334.424C331.495 334.424 342.097 323.822 342.097 310.796C342.097 297.768 331.495 287.166 318.467 287.166ZM318.467 336.785C304.135 336.785 292.477 325.126 292.477 310.796C292.477 296.464 304.135 284.805 318.467 284.805C332.8 284.805 344.46 296.464 344.46 310.796C344.46 325.126 332.8 336.785 318.467 336.785Z" fill="#EE2559"/>
<path d="M334.325 310.794L310.535 296.019V325.572L334.325 310.794Z" fill="#EE2559"/>
<path d="M385.57 356.951H253.379V347.373H385.57V356.951Z" fill="#9497D3"/>
<path d="M261.684 352.238L256.77 349.185V355.292L261.684 352.238Z" fill="#F9FDF9"/>
<path d="M328.466 352.162C328.466 353.777 327.156 355.087 325.54 355.087C323.925 355.087 322.617 353.777 322.617 352.162C322.617 350.547 323.925 349.238 325.54 349.238C327.156 349.238 328.466 350.547 328.466 352.162Z" fill="#F9FDF9"/>
<path d="M261.684 352.907H382.608V351.57H261.684V352.907Z" fill="#F9FDF9"/>
<path d="M243.254 203.885H243.258V153.169H243.254V203.885Z" fill="#B3ACDD"/>
<path d="M243.26 203.885H258.89V153.169H243.26V203.885Z" fill="#4E50AB"/>
<path d="M258.891 203.885H342.01V153.169H258.891V203.885Z" fill="#A19BD5"/>
<path d="M243.26 262.239H258.89V211.521H243.26V262.239Z" fill="#4E50AB"/>
<path d="M258.891 262.239H342.01V211.521H258.891V262.239Z" fill="#A19BD5"/>
<path d="M151.424 259.393H339.085V208.703H151.424V259.393Z" fill="#EE2559"/>
<path d="M207.16 225.009H324.978V219.438H207.16V225.009Z" fill="white"/>
<path d="M207.16 236.152H324.978V230.581H207.16V236.152Z" fill="white"/>
<path d="M207.262 247.294H268.672V241.496H207.262V247.294Z" fill="white"/>
<path d="M162.717 248.869H193.77V217.817H162.717V248.869Z" fill="white"/>
<path d="M184.215 226.974C184.215 230.359 181.47 233.104 178.085 233.104C174.7 233.104 171.955 230.359 171.955 226.974C171.955 223.588 174.7 220.844 178.085 220.844C181.47 220.844 184.215 223.588 184.215 226.974Z" fill="#CDCAEA"/>
<path d="M189.839 248.944H166.646V244.7C166.646 238.296 171.838 233.104 178.242 233.104C184.646 233.104 189.839 238.296 189.839 244.7V248.944Z" fill="#CDCAEA"/>
<path d="M151.424 200.845H339.085V150.157H151.424V200.845Z" fill="#F9AB1A"/>
<path d="M207.16 166.462H324.978V160.891H207.16V166.462Z" fill="white"/>
<path d="M207.16 177.604H324.978V172.033H207.16V177.604Z" fill="white"/>
<path d="M207.262 188.747H268.672V182.948H207.262V188.747Z" fill="white"/>
<path d="M162.717 190.323H193.77V159.27H162.717V190.323Z" fill="white"/>
<path d="M184.061 168.353C184.061 171.738 181.316 174.482 177.931 174.482C174.546 174.482 171.801 171.738 171.801 168.353C171.801 164.966 174.546 162.223 177.931 162.223C181.316 162.223 184.061 164.966 184.061 168.353Z" fill="#CDCAEA"/>
<path d="M189.682 190.323H166.49V186.078C166.49 179.674 171.682 174.483 178.086 174.483C184.49 174.483 189.682 179.674 189.682 186.078V190.323Z" fill="#CDCAEA"/>
<path d="M151.423 172.231H146.075V174.905H151.423V172.231ZM140.727 172.231H135.379V174.905H140.727V172.231ZM130.031 172.231H123.488V173.711H126.162V173.568H124.825V174.905H130.031V172.231ZM123.488 184.407H126.162V179.059H123.488V184.407ZM123.488 195.102H126.162V189.755H123.488V195.102ZM123.488 205.798H126.162V200.45H123.488V205.798ZM123.488 216.494H126.162V211.146H123.488V216.494ZM123.488 227.189H126.162V221.841H123.488V227.189ZM123.488 232.537V235.539H128.509V232.865H126.162V232.537H123.488ZM133.856 235.539H139.204V232.865H133.856V235.539ZM144.552 235.539H149.9V232.865H144.552V235.539Z" fill="#4247A5"/>
<path d="M651.242 178.884H666.873V147.809H651.242V178.884Z" fill="#4E50AB"/>
<path d="M619.23 178.884H651.241V147.809H619.23V178.884Z" fill="#A19BD5"/>
<path d="M705.185 176.24H621.898V143.44H705.185V176.24Z" fill="#F9AB1A"/>
<path d="M694.93 156.6H632.852V153.759H694.93V156.6Z" fill="white"/>
<path d="M694.93 162.957H632.852V160.116H694.93V162.957Z" fill="white"/>
<path d="M675.154 169.314H632.852V166.474H675.154V169.314Z" fill="white"/>
<path d="M149.098 373.038H50.3359V340.237H149.098V373.038Z" fill="#5254AE"/>
<path d="M136.94 353.396H63.3262V350.555H136.94V353.396Z" fill="white"/>
<path d="M136.94 359.753H63.3262V356.912H136.94V359.753Z" fill="white"/>
<path d="M113.489 366.11H63.3262V363.271H113.489V366.11Z" fill="white"/>
<path d="M390.473 120.799H602.399V107.103H390.473V120.799Z" fill="#4E50AB"/>
<path d="M390.473 227.476H602.399V120.799H390.473V227.476Z" fill="#A19BD5"/>
<path d="M596.315 221.824H384.391V78.1034H596.315V221.824Z" fill="#8181C9"/>
<path d="M583.793 190.57H396.08V88.4193H583.793V190.57Z" fill="white"/>
<path d="M473.906 214.487H395.168V197.907H473.906V214.487Z" fill="white"/>
<path d="M583.794 201.605H480.668V197.907H583.794V201.605Z" fill="white"/>
<path d="M564.171 214.487H480.668V210.789H564.171V214.487Z" fill="white"/>
<path d="M541.825 207.602H480.668V203.904H541.825V207.602Z" fill="white"/>
<path d="M403.205 190.57L442.193 107.375L489.966 167.025L514.913 133.965L576.729 190.57H403.205Z" fill="#6462B7"/>
<path d="M560.769 115.819C560.769 123.857 554.254 130.373 546.216 130.373C538.178 130.373 531.662 123.857 531.662 115.819C531.662 107.781 538.178 101.265 546.216 101.265C554.254 101.265 560.769 107.781 560.769 115.819Z" fill="#FAB819"/>
<path d="M129.372 309.313H106.896V305.211H129.372V309.313Z" fill="#9497D3"/>
<path d="M123.055 317.03H113.214C109.724 317.03 106.896 314.202 106.896 310.713H129.372C129.372 314.202 126.543 317.03 123.055 317.03Z" fill="#9497D3"/>
<path d="M115.642 268.008C107.073 268.954 100.173 275.853 99.2239 284.42C98.5768 290.257 100.626 295.628 104.28 299.449C104.732 299.921 105.256 300.318 105.687 300.811C106.43 301.66 106.844 302.778 107.125 303.857L107.355 305.211H117.766H128.177C128.177 305.211 128.186 304.847 128.316 304.246C128.662 302.619 129.518 301.139 130.716 299.983C134.236 296.59 136.427 291.827 136.427 286.551C136.427 275.545 126.899 266.764 115.642 268.008Z" fill="#F9AB1A"/>
<path d="M129.372 311.018H106.896V308.817H129.372V311.018Z" fill="#5254AE"/>
<path d="M113.891 293.013C113.167 293.013 112.577 293.605 112.577 294.33C112.577 295.054 113.167 295.643 113.891 295.643C114.617 295.643 115.208 295.054 115.208 294.33C115.208 293.605 114.617 293.013 113.891 293.013ZM113.891 296.603C112.639 296.603 111.617 295.582 111.617 294.33C111.617 293.076 112.639 292.054 113.891 292.054C115.147 292.054 116.168 293.076 116.168 294.33C116.168 295.582 115.147 296.603 113.891 296.603Z" fill="#4F55AE"/>
<path d="M121.643 293.013C120.919 293.013 120.328 293.605 120.328 294.33C120.328 295.054 120.919 295.643 121.643 295.643C122.369 295.643 122.96 295.054 122.96 294.33C122.96 293.605 122.369 293.013 121.643 293.013ZM121.643 296.603C120.391 296.603 119.369 295.582 119.369 294.33C119.369 293.076 120.391 292.054 121.643 292.054C122.897 292.054 123.917 293.076 123.917 294.33C123.917 295.582 122.897 296.603 121.643 296.603Z" fill="#4F55AE"/>
<path d="M114.374 305.21H113.414V296.123H114.374V305.21Z" fill="#4F55AE"/>
<path d="M122.125 305.21H121.166V296.123H122.125V305.21Z" fill="#4F55AE"/>
<path d="M119.849 294.808H115.686V293.85H119.849V294.808Z" fill="#4F55AE"/>
<path d="M490.735 316.17V316.169H490.734L490.735 316.17Z" fill="url(#paint0_linear_264_88)"/>
<path d="M490.744 316.162L490.736 316.152L490.739 316.163L490.734 316.169H490.743L490.744 316.162Z" fill="url(#paint1_linear_264_88)"/>
<path d="M469.734 248.809C456.682 253.347 444.831 261.3 435.629 272.142L494.377 319.714L469.734 248.809Z" fill="#5254AE"/>
<path d="M494.377 319.714L435.629 272.142C431.179 277.385 427.345 283.301 424.301 289.838L494.376 319.73H494.377L494.381 319.725L494.377 319.714Z" fill="url(#paint2_linear_264_88)"/>
<path d="M494.377 319.714L435.629 272.142L428.819 266.628C413.524 281.471 409.363 296.732 409.363 319.73H494.376H494.377L494.381 319.725L494.377 319.714Z" fill="#F9AB1A"/>
<path d="M494.387 319.732L523.31 253.436C523.555 252.887 532.236 258.193 532.88 258.588C537.441 261.385 541.713 264.319 545.639 267.993C553.86 275.686 560.305 285.277 564.274 295.815C567.172 303.506 568.843 311.6 569.227 319.811L494.387 319.732Z" fill="#6673C1"/>
<path d="M494.386 319.731L527.531 243.722C509.747 236.126 486.684 234.543 467.439 242.606L494.379 319.732L494.386 319.731Z" fill="#EE2559"/>
<path d="M590.462 313.048H577.98V302.337H590.462V313.048Z" fill="#F9AB1A"/>
<path d="M610.755 313.048H598.273V302.337H610.755V313.048Z" fill="#6673C1"/>
<path d="M631.048 313.048H618.566V302.337H631.048V313.048Z" fill="#EE2559"/>
<path d="M635.906 271.528H573.121V267.932H635.906V271.528Z" fill="white"/>
<path d="M635.906 279.245H573.121V275.651H635.906V279.245Z" fill="white"/>
<path d="M635.906 286.964H573.121V283.368H635.906V286.964Z" fill="white"/>
<path d="M635.906 294.681H573.121V291.087H635.906V294.681Z" fill="white"/>
<path d="M886.093 279.024H798.127V150.609H886.093V279.024Z" fill="white"/>
<path d="M834.411 224.282C832.564 224.282 831.068 222.786 831.068 220.939V178.895C831.068 177.049 832.564 175.553 834.411 175.553C836.257 175.553 837.753 177.049 837.753 178.895V220.939C837.753 222.786 836.257 224.282 834.411 224.282Z" fill="#F9AB1A"/>
<path d="M834.411 245.313C832.564 245.313 831.068 243.817 831.068 241.971V220.939C831.068 219.093 832.564 217.597 834.411 217.597C836.257 217.597 837.753 219.093 837.753 220.939V241.971C837.753 243.817 836.257 245.313 834.411 245.313Z" fill="#CDCAEA"/>
<path d="M866.876 223.299C865.031 223.299 863.533 221.803 863.533 219.956V165.536C863.533 163.69 865.031 162.194 866.876 162.194C868.722 162.194 870.218 163.69 870.218 165.536V219.956C870.218 221.803 868.722 223.299 866.876 223.299Z" fill="#EE2559"/>
<path d="M866.876 245.313C865.031 245.313 863.533 243.817 863.533 241.971V219.956C863.533 218.11 865.031 216.614 866.876 216.614C868.722 216.614 870.218 218.11 870.218 219.956V241.971C870.218 243.817 868.722 245.313 866.876 245.313Z" fill="#CDCAEA"/>
<path d="M851.835 211.908C849.99 211.908 848.492 210.412 848.492 208.566V196.548C848.492 194.703 849.99 193.206 851.835 193.206C853.681 193.206 855.177 194.703 855.177 196.548V208.566C855.177 210.412 853.681 211.908 851.835 211.908Z" fill="#5254AE"/>
<path d="M851.835 245.313C849.99 245.313 848.492 243.817 848.492 241.971V208.566C848.492 206.719 849.99 205.223 851.835 205.223C853.681 205.223 855.177 206.719 855.177 208.566V241.971C855.177 243.817 853.681 245.313 851.835 245.313Z" fill="#CDCAEA"/>
<path d="M817.342 211.908C815.496 211.908 814 210.412 814 208.566V187.487C814 185.641 815.496 184.145 817.342 184.145C819.187 184.145 820.685 185.641 820.685 187.487V208.566C820.685 210.412 819.187 211.908 817.342 211.908Z" fill="#6673C1"/>
<path d="M817.342 245.313C815.496 245.313 814 243.817 814 241.971V208.566C814 206.719 815.496 205.223 817.342 205.223C819.187 205.223 820.685 206.719 820.685 208.566V241.971C820.685 243.817 819.187 245.313 817.342 245.313Z" fill="#CDCAEA"/>
<path d="M821.108 260.26H807.992V253.196H821.108V260.26Z" fill="#6673C1"/>
<path d="M821.108 271.671H807.992V264.606H821.108V271.671Z" fill="#EE2559"/>
<path d="M858.53 260.26H845.416V253.196H858.53V260.26Z" fill="#F9AB1A"/>
<path d="M858.528 271.671H845.414V264.606H858.528V271.671Z" fill="#5254AE"/>
<path d="M839.967 257.104H823.74V254.751H839.967V257.104Z" fill="#CDCAEA"/>
<path d="M839.967 269.772H823.74V267.422H839.967V269.772Z" fill="#CDCAEA"/>
<path d="M876.995 257.104H860.768V254.751H876.995V257.104Z" fill="#CDCAEA"/>
<path d="M876.995 269.772H860.768V267.422H876.995V269.772Z" fill="#CDCAEA"/>
<path d="M274.602 120.799H365.963V107.103H274.602V120.799Z" fill="#4E50AB"/>
<path d="M274.602 144.031H365.963V120.799H274.602V144.031Z" fill="#A19BD5"/>
<path d="M361.757 139.877H270.604V66.3861H361.757V139.877Z" fill="#8181C9"/>
<path d="M355.714 133.834H276.646V72.0415H355.714V133.834Z" fill="white"/>
<path d="M315.169 76.9031C317.219 76.7614 318.998 78.3122 319.141 80.3671C319.282 82.4247 317.736 84.2068 315.685 84.3485C308.095 84.878 302.349 91.4999 302.875 99.1111C303.018 101.166 301.472 102.95 299.421 103.093C297.371 103.234 295.593 101.683 295.45 99.6272C294.64 87.9115 303.485 77.7173 315.169 76.9031Z" fill="#F9AB1A"/>
<path d="M295.399 98.1123C295.411 96.0507 297.086 94.3902 299.141 94.4022C301.196 94.4129 302.854 96.0935 302.843 98.1537C302.799 105.784 308.955 112.025 316.563 112.066C318.618 112.078 320.277 113.759 320.265 115.819C320.253 117.88 318.578 119.542 316.521 119.53C304.81 119.465 295.333 109.857 295.399 98.1123Z" fill="#6673C1"/>
<path d="M316.658 119.53C314.601 119.53 312.936 117.859 312.936 115.799C312.936 113.737 314.601 112.066 316.658 112.066C324.266 112.066 330.456 105.86 330.456 98.23C330.456 96.1698 332.122 94.4986 334.177 94.4986C336.232 94.4986 337.898 96.1698 337.898 98.23C337.898 109.975 328.369 119.53 316.658 119.53Z" fill="#EE2559"/>
<path d="M315.018 76.9001C326.703 76.0859 336.869 84.9592 337.679 96.6749C337.822 98.7312 336.275 100.515 334.224 100.656C332.175 100.799 330.397 99.2486 330.253 97.1923C329.727 89.5811 323.124 83.8161 315.534 84.3442C315.666 84.3349 315.8 84.3055 315.929 84.2747C316.249 84.1972 316.562 84.0835 316.857 83.9351C317.253 83.7373 317.618 83.4766 317.923 83.153C318.296 82.756 318.567 82.272 318.726 81.7506C318.964 80.9738 318.976 80.1837 318.722 79.4096C318.583 78.9804 318.367 78.5793 318.075 78.233C317.669 77.7477 317.131 77.3934 316.548 77.1568L316.253 77.0458C316.253 77.0458 315.744 76.8908 315.272 76.8988" fill="#5254AE"/>
<path d="M329.771 125.192H281.621V122.525H329.771V125.192Z" fill="#CDCAEA"/>
<path d="M339.776 125.192H333.709V122.525H339.776V125.192Z" fill="#F9AB1A"/>
<path d="M350.74 125.192H344.676V122.525H350.74V125.192Z" fill="#5254AE"/>
<path d="M339.776 129.786H333.709V127.118H339.776V129.786Z" fill="#6673C1"/>
<path d="M350.74 129.786H344.676V127.118H350.74V129.786Z" fill="#EE2559"/>
<path d="M329.771 129.786H281.621V127.118H329.771V129.786Z" fill="#CDCAEA"/>
<path d="M789.757 495.963C789.757 500.262 761.426 503.75 726.478 503.75C691.529 503.75 663.197 500.262 663.197 495.963C663.197 491.662 691.529 488.177 726.478 488.177C761.426 488.177 789.757 491.662 789.757 495.963Z" fill="#CDCAEA"/>
<path d="M753.422 224.422C753.216 224.961 753.174 237.461 753.172 238.038C753.158 240.198 753.145 242.36 753.129 244.52C753.116 246.23 753.109 247.971 753.595 249.61C754.236 251.773 755.68 253.109 757.731 253.933C761.751 255.549 766.788 255.402 770.962 254.467C771.376 254.375 775.338 253.002 775.369 253.041C773.459 250.724 771.725 247.982 770.885 245.081C769.708 241.026 770.119 236.854 770.642 232.745C770.916 230.591 771.097 228.425 771.184 226.256C771.27 224.163 771.261 213.76 770.856 211.701C769.787 212.109 767.43 217.172 766.564 217.978C765.488 218.981 765.071 219.896 763.994 220.899C761.843 222.905 759.171 221.588 757.006 223.58C756.088 224.434 756.185 224.49 755.228 225.298C754.424 225.977 753.824 223.386 753.422 224.422Z" fill="#283167"/>
<path d="M709.403 495.446L709.301 490.469L709.264 488.631L708.089 490.047L702.72 488.177L674.582 493.13C673.561 493.31 673.461 494.739 674.451 495.052C680.605 496.996 693.267 500.317 702.761 498.28L702.677 499.257L709.495 499.889L709.403 495.446Z" fill="#181819"/>
<path d="M702.719 488.177L686.273 491.071C686.273 491.071 704.878 496.308 709.07 488.968" fill="#F89FAB"/>
<path d="M715.968 394.585C715.846 394.315 715.735 394.042 715.632 393.769C715.138 392.442 715.049 390.998 715.258 389.597L726.401 312L737.617 311.354L733.821 380.111C734.303 380.634 734.792 381.207 735.285 381.824L719.076 401.476L715.968 394.585Z" fill="#212A55"/>
<path d="M771.536 492.987L770.889 488.623C770.835 488.249 770.764 487.88 770.675 487.515L770.419 486.432L769.551 487.799L763.989 486.618L736.701 495.079C735.71 495.387 735.786 496.817 736.806 497.001C743.154 498.157 756.14 499.855 765.305 496.637L765.344 497.616L772.186 497.383L771.536 492.987Z" fill="#181819"/>
<path d="M763.99 486.62L747.885 491.612C747.885 491.612 767.217 494.429 770.448 486.62" fill="#F89FAB"/>
<path d="M736.613 426.511L747.469 378.198C748.967 384.266 758.605 418.419 760.209 425.424C761.886 432.745 763.13 440.163 763.954 447.628L770.446 486.619L763.987 486.618L736.613 426.511Z" fill="#212A55"/>
<path d="M718.553 382.474L726.403 312L754.059 313.494C766.94 329.666 761.718 348.05 753.725 365.98C749.433 375.606 745.097 392.624 734.525 435.033C732.708 442.321 730.462 449.499 727.818 456.529L708.931 489.053L702.523 488.24L718.553 382.474Z" fill="#26326A"/>
<path d="M726.046 314.48H726.031L726.402 312L726.046 314.48Z" fill="#B0AFDE"/>
<path d="M726.126 314.484L726.047 314.48L726.403 312L726.126 314.484Z" fill="#090E17"/>
<path d="M755.75 315.814L726.123 314.484L726.4 312H726.404L726.4 312.039L745.792 313.086C745.795 313.086 745.796 313.087 745.799 313.087L754.056 313.532C754.057 313.523 754.06 313.514 754.063 313.504L755.75 315.814Z" fill="#0C101C"/>
<path d="M748.336 381.61L736.613 426.511L738.502 430.657L750.324 388.819L748.336 381.61Z" fill="#14192F"/>
<path d="M724.61 291.975C726.935 292.414 729.025 290.47 728.722 288.124C727.615 279.572 727.786 270.741 728.734 263.026C729.373 257.84 730.12 254.161 732.235 249.915C733.984 246.404 743.512 245.601 745.758 252.791C747.831 259.431 744.538 261.399 743.675 268.25C742.888 274.512 741.746 280.746 739.928 286.8C739.02 289.824 737.945 292.8 736.678 295.693C736.263 296.637 735.862 297.619 735.445 298.608C734.786 300.171 734.091 301.736 733.254 303.174L733.228 303.222L733.071 303.548C732.162 305.442 730.02 306.405 727.998 305.83C725.409 305.098 722.818 304.366 720.227 303.636L716.18 290.589C718.993 290.993 721.804 291.445 724.61 291.975Z" fill="#EF3075"/>
<path d="M739.884 242.691L728.585 263.398C726.016 267.802 725.51 273.11 727.2 277.92L729.355 284.054L726.403 312.039L754.059 313.532C760.344 289.781 767.426 277.9 767.426 277.9C767.426 277.9 779.067 252.621 757.588 246.03L739.884 242.691Z" fill="#F0387C"/>
<path d="M757.218 300.687C759.856 300.934 756.857 278.905 757.104 271.311C757.275 266.087 757.011 259.51 758.738 255.09C760.164 251.438 766.477 247.839 769.357 254.797C772.018 261.227 772.698 268.273 772.454 275.173C772.23 281.482 771.651 287.795 770.384 293.985C769.75 297.079 768.946 300.137 767.943 303.134C767.617 304.112 767.305 305.124 766.978 306.147C766.46 307.762 765.909 309.384 765.203 310.891L765.182 310.941L765.055 311.28C764.321 313.245 762.279 314.396 760.218 314.01C757.568 313.512 754.92 313.015 752.271 312.518L747.07 299.887C749.73 300.028 754.552 300.438 757.218 300.687Z" fill="#EF3075"/>
<path d="M748.908 221.634L750.655 219.037L742.199 223.648L736.762 230.599C736.762 230.599 737.553 234.248 738.62 239.132C741.847 239.122 752.05 227.073 748.908 221.634Z" fill="#F46C82"/>
<path d="M754.343 225.138C754.343 225.138 761.654 222.89 762.044 218.49L756.739 220.05L749.632 215.853C745.236 230.3 741.368 236.922 738.141 236.933C738.595 239.017 739.007 241.122 739.409 243.223C739.23 246.56 738.865 250.113 742.13 251.169C745.267 252.185 749.737 250.222 751.882 248.329C753.363 247.022 754.117 246.961 755.599 245.654C755.599 245.654 754.743 241.588 753.846 237.252C753.137 232.731 752.842 228.109 754.343 225.138Z" fill="#F89FAB"/>
<path d="M720.305 217.427L724.278 220.89L726.336 233.394C726.336 233.394 744.37 237.374 751.089 220.899C751.089 220.899 762.043 220.285 763.661 210.659C765.277 201.033 756.704 186.083 738.144 192.712C738.144 192.712 729.245 196.568 727.301 204.013C726.951 205.353 726.971 206.759 727.218 208.122C727.719 210.868 728.039 217.234 720.305 217.427Z" fill="#F89FAB"/>
<path d="M739.474 218.771C740.267 220.798 739.267 223.084 737.24 223.877C735.215 224.669 732.929 223.669 732.136 221.643C731.342 219.616 732.343 217.331 734.37 216.538C736.397 215.744 738.683 216.745 739.474 218.771Z" fill="#F46C82"/>
<path d="M724.797 224.82C724.806 224.822 725.231 224.906 725.983 224.906C727.127 224.906 729.027 224.711 731.353 223.733L731.224 223.424C728.943 224.383 727.088 224.572 725.983 224.572C725.619 224.572 725.337 224.551 725.146 224.531C724.956 224.511 724.862 224.491 724.862 224.493L724.797 224.82Z" fill="#F46C82"/>
<path d="M724.83 224.656L728.928 224.422C728.928 224.422 725.385 222.928 724.633 223.715C724.467 223.888 724.83 224.656 724.83 224.656Z" fill="#F46C82"/>
<path d="M724.929 224.631C724.689 224.637 724.627 225.04 724.633 225.211C724.648 225.548 724.83 225.899 725.131 226.065C725.603 226.327 726.216 226.057 726.668 225.867C727.48 225.525 728.216 224.937 728.928 224.422L724.929 224.631Z" fill="#F3617C"/>
<path d="M728.279 209.105C728.279 209.105 733.017 206.661 735.804 211.229C735.804 211.229 732.826 208.329 728.279 209.105Z" fill="#283167"/>
<path d="M730.444 214.461C730.947 214.917 731.726 214.879 732.182 214.375C732.639 213.871 732.602 213.093 732.098 212.636C731.595 212.18 730.816 212.217 730.358 212.721C729.901 213.225 729.94 214.003 730.444 214.461Z" fill="#283167"/>
<path d="M744.441 185.409C761.488 183.704 767.672 195.32 769.894 203.125C771.227 207.81 771.681 219.159 769.955 223.713C765.332 235.907 753.334 229.15 753.334 229.15L753.126 222.931L751.916 214.657C746.111 213.293 744.441 205.299 744.441 205.299C744.441 205.299 743.674 205.33 742.452 205.373L741.27 201.137V205.413C740.861 205.426 740.419 205.441 739.958 205.454L738.812 198.986V205.49C738.183 205.509 737.524 205.527 736.85 205.543L736.884 205.54L735.915 201.252L735.7 205.571C730.411 205.692 724.675 205.726 724.634 205.299C722.598 184.732 744.441 185.409 744.441 185.409Z" fill="#283167"/>
<path d="M758.577 210.93C760.317 212.985 760.063 216.06 758.009 217.799C755.955 219.538 751.985 220.358 750.245 218.304C748.505 216.249 749.656 212.099 751.709 210.36C753.763 208.621 756.839 208.876 758.577 210.93Z" fill="#F89FAB"/>
<path d="M751.998 220.13C752.24 220.752 752.944 221.059 753.565 220.816C754.188 220.573 754.496 219.869 754.251 219.246C754.008 218.625 753.306 218.317 752.683 218.561C752.06 218.804 751.754 219.507 751.998 220.13Z" fill="white"/>
<path d="M754.066 313.504C754.121 313.299 754.176 313.09 754.231 312.885C754.232 312.885 754.234 312.885 754.234 312.887C754.177 313.094 754.123 313.296 754.066 313.504Z" fill="#B0AFDE"/>
<path d="M754.057 313.532L745.8 313.087C745.797 313.087 745.796 313.086 745.793 313.086L754.057 313.532C754.058 313.523 754.061 313.514 754.063 313.504C754.061 313.514 754.058 313.523 754.057 313.532Z" fill="#060809"/>
<path d="M726.675 309.456C726.674 309.456 726.674 309.456 726.674 309.456L726.801 308.258L726.675 309.456Z" fill="#B0AFDE"/>
<path d="M754.059 313.532L745.796 313.086C741.218 312.226 736.639 311.366 732.061 310.508C730.239 310.166 728.45 309.799 726.676 309.456L726.801 308.258L726.86 307.708C728.573 308.041 730.3 308.396 732.061 308.725C738.798 309.989 745.536 311.254 752.273 312.517C752.926 312.64 753.578 312.762 754.23 312.885C754.176 313.09 754.121 313.298 754.066 313.504C754.066 313.505 754.066 313.503 754.066 313.504C754.063 313.514 754.061 313.523 754.059 313.532Z" fill="#EE2947"/>
<path d="M754.232 312.887C754.232 312.885 754.23 312.885 754.229 312.885C753.576 312.762 752.924 312.641 752.271 312.518C752.925 312.641 753.578 312.764 754.232 312.887Z" fill="#EE253B"/>
<path d="M741.597 250.963C741.597 250.963 737.348 251.804 736.878 248.82C736.408 245.836 739.423 243.531 739.423 243.531L741.597 250.963Z" fill="white"/>
<path d="M755.75 244.853L741.598 250.963C741.598 250.963 753.236 259.248 755.75 244.853Z" fill="white"/>
<path d="M677.195 227.501L712.956 336.242C712.956 336.242 724.427 335.295 741.918 326.717L706.158 217.978L677.195 227.501Z" fill="#F9AB1A"/>
<path d="M735.389 331.164L720.534 336.051L684.092 225.234L698.945 220.348L735.389 331.164Z" fill="#FABB3D"/>
<path d="M712.953 336.242L713.532 338.001L718.448 352.948L747.409 343.425L742.493 328.478L741.915 326.717C724.424 335.295 712.953 336.242 712.953 336.242Z" fill="#EAE8F6"/>
<path d="M712.953 336.242L713.532 338.002L713.636 338.318C713.636 338.318 725.106 337.372 742.597 328.794L742.493 328.478L741.915 326.718C724.424 335.296 712.953 336.242 712.953 336.242Z" fill="#9497D3"/>
<path d="M714.422 340.706L715.002 342.465L715.105 342.782C715.105 342.782 726.576 341.836 744.066 333.259L743.962 332.941L743.383 331.183C725.893 339.759 714.422 340.706 714.422 340.706Z" fill="#9497D3"/>
<path d="M715.891 345.171L716.468 346.929L716.572 347.248C716.572 347.248 728.044 346.3 745.535 337.723L745.429 337.405L744.852 335.647C727.36 344.223 715.891 345.171 715.891 345.171Z" fill="#9497D3"/>
<path d="M718.299 352.487L718.593 353.384L722.558 365.443C723.616 368.656 727.012 370.426 730.147 369.395L747.759 363.602C750.892 362.572 752.576 359.132 751.519 355.92L747.553 343.86L747.26 342.963L718.299 352.487Z" fill="#EE2559"/>
<path d="M717.697 350.663L718.276 352.424L718.38 352.741C718.38 352.741 729.85 351.793 747.34 343.216L747.236 342.899L746.657 341.14C729.167 349.717 717.697 350.663 717.697 350.663Z" fill="#9497D3"/>
<path d="M688.979 201.495L682.455 195.232L680.988 204.225C682.734 204.005 685.598 203.354 688.979 201.495Z" fill="#26326A"/>
<path d="M706.158 217.978L688.983 201.495C685.602 203.354 682.738 204.005 680.992 204.225L677.195 227.501L706.158 217.978Z" fill="#FDDEA1"/>
<path d="M720.603 364.068L719.438 360.524L719.893 357.354L720.983 360.667L720.603 364.068Z" fill="#1A203E"/>
<path d="M727.506 371.781C724.974 371.781 722.597 370.128 721.745 367.536L720.604 364.068L720.983 360.667L722.559 365.462C723.412 368.053 725.788 369.706 728.32 369.706C728.926 369.706 729.542 369.611 730.147 369.413L747.76 363.621C748.472 363.386 749.106 363.022 749.647 362.564C750.129 362.168 750.54 361.7 750.872 361.18C750.46 363.236 749.039 365.006 746.944 365.695L729.331 371.487C728.727 371.686 728.112 371.781 727.506 371.781Z" fill="#1F254D"/>
<path d="M749.646 362.563C750.133 362.153 750.546 361.666 750.882 361.13C750.878 361.148 750.875 361.164 750.871 361.18C750.54 361.7 750.128 362.168 749.646 362.563Z" fill="#EE2348"/>
<path d="M752.272 312.518L747.072 299.887C740.32 299.526 733.576 299.462 726.81 299.462C723.337 299.442 710.439 299.163 710.439 299.163C707.696 297.21 706.49 296.078 704.308 295.215C703.311 294.819 701.717 294.088 700.761 293.434C699.921 292.862 698.772 293.338 698.562 294.331L702.661 297.827L699.465 297.119C698.328 296.866 697.235 297.688 697.162 298.85L696.818 304.314C697.137 306.291 699.102 307.492 701.098 307.334L705.38 307.456C706.28 307.481 707.17 307.369 708.035 307.12C709.606 306.67 711.264 306.275 712.898 306.183C715.522 306.033 718.121 306.612 720.707 306.972C723.116 307.309 725.525 307.654 727.929 308.029C729.309 308.246 730.687 308.468 732.059 308.725C738.799 309.989 745.535 311.254 752.272 312.518Z" fill="#F89FAB"/>
<path d="M692.699 287.664L697.672 289.772L696.013 284.728L699.402 281.127C700.047 280.437 700.171 279.409 699.706 278.588L698.714 276.828C698.226 275.961 697.265 275.476 696.279 275.595L688.961 276.475L687.168 280.117L692.699 287.664Z" fill="#F7929A"/>
<path d="M692.699 287.664L694.267 284.713L688.961 276.475L687.168 280.117L692.699 287.664Z" fill="#F8A6B1"/>
<defs>
<linearGradient id="paint0_linear_264_88" x1="486.73" y1="316.169" x2="494.738" y2="316.169" gradientUnits="userSpaceOnUse">
<stop stop-color="#6F58B1"/>
<stop offset="0.204082" stop-color="#6F58B1"/>
<stop offset="1" stop-color="#8A99D5"/>
</linearGradient>
<linearGradient id="paint1_linear_264_88" x1="400.061" y1="316.16" x2="489.177" y2="316.16" gradientUnits="userSpaceOnUse">
<stop stop-color="#F7941C"/>
<stop offset="0.0046729" stop-color="#F7941C"/>
<stop offset="1" stop-color="#FDD50B"/>
</linearGradient>
<linearGradient id="paint2_linear_264_88" x1="424.301" y1="295.935" x2="494.381" y2="295.935" gradientUnits="userSpaceOnUse">
<stop stop-color="#6F58B1"/>
<stop offset="0.204082" stop-color="#6F58B1"/>
<stop offset="1" stop-color="#8A99D5"/>
</linearGradient>
</defs>
</svg>
